<?xml version="1.0" encoding="UTF-8" standalone="no"?>
<!-- Created with Inkscape (http://www.inkscape.org/) -->

<svg
   width="210mm"
   height="297mm"
   viewBox="0 0 210 297"
   version="1.1"
   id="svg5"
   inkscape:version="1.2.1 (9c6d41e410, 2022-07-14)"
   sodipodi:docname="notification-bell-4.svg"
   xmlns:inkscape="http://www.inkscape.org/namespaces/inkscape"
   xmlns:sodipodi="http://sodipodi.sourceforge.net/DTD/sodipodi-0.dtd"
   xmlns="http://www.w3.org/2000/svg"
   xmlns:svg="http://www.w3.org/2000/svg">
  <sodipodi:namedview
     id="namedview7"
     pagecolor="#ffffff"
     bordercolor="#666666"
     borderopacity="1.0"
     inkscape:showpageshadow="2"
     inkscape:pageopacity="0.0"
     inkscape:pagecheckerboard="0"
     inkscape:deskcolor="#d1d1d1"
     inkscape:document-units="mm"
     showgrid="false"
     inkscape:zoom="0.52221046"
     inkscape:cx="-88.08709"
     inkscape:cy="731.50584"
     inkscape:window-width="1920"
     inkscape:window-height="1009"
     inkscape:window-x="-8"
     inkscape:window-y="-8"
     inkscape:window-maximized="1"
     inkscape:current-layer="layer1" />
  <defs
     id="defs2">
    <inkscape:path-effect
       effect="simplify"
       id="path-effect11608"
       is_visible="true"
       lpeversion="1"
       steps="1"
       threshold="0.000408163"
       smooth_angles="360"
       helper_size="0"
       simplify_individual_paths="false"
       simplify_just_coalesce="false" />
    <inkscape:path-effect
       effect="bool_op"
       operand-path=""
       id="path-effect8406"
       is_visible="false"
       lpeversion="1"
       operation="diff"
       swap-operands="false"
       filltype-this="from-curve"
       filter=""
       filltype-operand="from-curve" />
    <inkscape:path-effect
       effect="bounding_box"
       id="path-effect8404"
       is_visible="false"
       lpeversion="1"
       linkedpath=""
       visualbounds="false" />
    <filter
       id="selectable_hidder_filter"
       width="1"
       height="1"
       x="0"
       y="0"
       style="color-interpolation-filters:sRGB;"
       inkscape:label="LPE boolean visibility">
      <feComposite
         id="boolops_hidder_primitive"
         result="composite1"
         operator="arithmetic"
         in2="SourceGraphic"
         in="BackgroundImage" />
    </filter>
    <inkscape:path-effect
       effect="bool_op"
       operand-path=""
       id="path-effect8400"
       is_visible="true"
       lpeversion="1"
       operation="diff"
       swap-operands="false"
       filltype-this="from-curve"
       filter=""
       filltype-operand="from-curve" />
    <clipPath
       clipPathUnits="userSpaceOnUse"
       id="clipPath623">
      <path
         id="path625"
         style="fill:#ff0000;fill-opacity:1;fill-rule:nonzero;stroke:none;stroke-width:0.264583"
         d="m 67.488387,51.421668 v 54.982692 h 28.706776 c 0.01969,-0.0155 0.04758,-0.0271 0.08475,-0.032 0.0438,-0.006 0.01114,-0.001 0.09715,-0.0176 0.0441,-0.008 0.08854,-0.0137 0.132292,-0.0227 0.03584,-0.008 0.06132,-0.0137 0.0832,-0.0191 -0.02705,0.002 -0.05412,0.004 -0.08113,0.005 -0.03052,0.001 -0.06095,0.002 -0.09147,0.003 -0.08862,0.003 -0.09115,-0.0864 -0.0026,-0.0894 0.02952,-0.001 0.05886,-0.002 0.08837,-0.003 0.103677,-0.007 0.207393,-0.0142 0.311092,-0.0202 0.04274,-0.002 0.08599,-0.003 0.128674,-0.006 0.143711,-0.0108 0.122852,-0.0149 0.225312,-0.0202 0.0068,-0.002 0.01386,-0.004 0.02119,-0.005 0.01725,-0.004 0.03523,-0.005 0.05271,-0.008 0.0083,-6e-5 0.01664,10e-4 0.02479,0 0.03085,-0.005 0.123446,-0.0322 0.142628,-0.0372 0.10803,-0.0212 0.07677,-0.017 0.180867,-0.0315 0.07283,-0.0102 0.14878,-0.0195 0.216008,-0.001 0.01035,-0.005 0.02053,-0.0101 0.031,-0.0134 0.06143,-0.0242 0.122841,-0.0458 0.19017,-0.0398 0.128849,0 0.257691,-4e-5 0.38654,0 0.122751,9e-5 0.245187,5.3e-4 0.367937,-5.3e-4 0.04278,-5e-5 0.08589,0 0.128673,0 0.01542,-0.004 0.03056,-0.005 0.04599,-0.005 0.01185,-0.003 0.02368,-0.006 0.03462,-0.006 0.01312,-7.9e-4 0.02508,0.002 0.03359,0.0114 2.65e-4,5.3e-4 7.94e-4,5.3e-4 0.0011,10e-4 0.05389,0.003 0.116464,-0.0121 0.09302,0.0444 0.164121,0.005 0.328572,0.007 0.492992,0.006 0.0024,-3e-5 0.0048,10e-6 0.0072,0 0.0013,-4e-5 0.0028,4e-5 0.0041,0 0.07399,-0.002 0.147923,-0.003 0.221691,-0.007 0.03867,-0.002 0.06348,-0.003 0.09457,-0.005 V 51.421684 Z m 29.898949,54.901042 c -0.02902,0.008 -0.05761,0.0168 -0.07648,0.0202 -0.05261,0.009 -0.04714,2e-5 -0.09198,0.0108 -0.03086,0.007 -0.08406,0.0267 -0.111104,0.0367 -0.01595,0.004 -0.03385,0.009 -0.05219,0.0139 h 0.361736 c -6.1e-5,-1.6e-4 5.8e-5,-2.6e-4 0,-5.3e-4 -0.03853,1.1e-4 -0.05329,-0.006 -0.02222,-0.0589 -0.0029,-0.008 -0.0054,-0.0152 -0.0078,-0.0222 z" />
    </clipPath>
    <clipPath
       clipPathUnits="userSpaceOnUse"
       id="clipPath633">
      <path
         id="path635"
         style="fill:#ff0000;fill-opacity:1;fill-rule:nonzero;stroke:none;stroke-width:0.264583"
         d="m 95.998276,51.167419 v 54.982691 h 1.348753 c 0.0284,-0.008 0.05582,-0.0157 0.06511,-0.0181 0.10803,-0.0212 0.07677,-0.017 0.180867,-0.0315 0.07283,-0.0102 0.14878,-0.0195 0.216008,-0.001 0.01035,-0.005 0.02053,-0.01 0.031,-0.0135 0.06143,-0.0242 0.122841,-0.0458 0.190169,-0.0398 0.12885,0 0.257691,-4e-5 0.386541,0 0.122751,9e-5 0.245184,5.3e-4 0.367937,-5.3e-4 0.04278,-5e-5 0.08589,0 0.128672,0 0.01543,-0.004 0.03056,-0.005 0.04599,-0.005 0.01185,-0.003 0.02368,-0.006 0.03462,-0.006 0.01312,-7.9e-4 0.02508,0.002 0.03359,0.0114 2.65e-4,5.3e-4 7.94e-4,5.3e-4 0.0011,10e-4 0.05409,0.003 0.116662,-0.0124 0.0925,0.045 0.164285,0.005 0.328911,0.008 0.493508,0.007 0.0024,-1e-5 0.0048,0 0.0072,0 0.0013,-4e-5 0.0028,4e-5 0.0041,0 0.07399,-0.002 0.147921,-0.003 0.221692,-0.007 0.299997,-0.0144 0.350957,-0.0172 0.478007,-0.0176 0.0423,-1.3e-4 0.093,1e-5 0.16433,0 -0.01,0.0157 -0.0164,0.0364 -0.0243,0.0548 0.005,0.007 0.009,0.0144 0.014,0.0212 H 128.4521 V 51.167419 Z" />
    </clipPath>
    <clipPath
       clipPathUnits="userSpaceOnUse"
       id="clipPath3635">
      <g
         id="g3639"
         transform="translate(-18.27141,-0.71652605)">
        <g
           inkscape:label="Clip"
           id="use3637"
           style="fill:#dd1515;fill-opacity:1"
           transform="translate(18.27141,0.716526)"
           clip-path="url(#clipPath3635)">
          <g
             id="g3656"
             style="fill:#dd1515;fill-opacity:1">
            <path
               style="color:#000000;fill:#dd1515;fill-opacity:1;stroke-width:0.264583;-inkscape-stroke:none"
               d="M 123.69028,58.396866 A 10.031363,10.031363 0 0 1 113.65892,68.428228 10.031363,10.031363 0 0 1 103.62756,58.396866 10.031363,10.031363 0 0 1 113.65892,48.365503 10.031363,10.031363 0 0 1 123.69028,58.396866 Z"
               id="path3652" />
            <path
               style="color:#000000;fill:#dd1515;fill-opacity:1;-inkscape-stroke:none"
               d="m 113.6582,48.232422 c -5.61166,0 -10.16211,4.552404 -10.16211,10.164062 0,5.611659 4.55045,10.164063 10.16211,10.164063 5.61166,0 10.16407,-4.552404 10.16407,-10.164063 0,-5.611658 -4.55241,-10.164062 -10.16407,-10.164062 z m 0,0.265625 c 5.46867,0 9.90039,4.42977 9.90039,9.898437 0,5.468668 -4.43172,9.900391 -9.90039,9.900391 -5.46866,0 -9.89843,-4.431723 -9.89843,-9.900391 0,-5.468667 4.42977,-9.898437 9.89843,-9.898437 z"
               id="path3654" />
          </g>
        </g>
      </g>
    </clipPath>
    <inkscape:path-effect
       effect="fill_between_many"
       method="originald"
       linkedpaths="#g6056,0,1"
       id="path-effect8380" />
  </defs>
  <g
     inkscape:label="Layer 1"
     inkscape:groupmode="layer"
     id="layer1">
    <path
       inkscape:original-d="M 0,0"
       inkscape:path-effect="#path-effect8380"
       d="M 0,0"
       id="path8382"
       class="UnoptimicedTransforms" />
    <g
       id="g6038"
       style="fill:#000000;stroke:none"
       transform="translate(4.120023,-12.897467)" />
    <g
       id="g6048"
       style="fill:#000000;stroke:none"
       transform="translate(4.120023,-12.897467)" />
    <g
       id="path6052"
       style="stroke:#ae1617;stroke-width:0;stroke-dasharray:none;stroke-opacity:1"
       transform="translate(37.691545,23.04314)" />
    <path
       id="path11408"
       style="fill:#000000;fill-opacity:1;stroke:#ae1617;stroke-width:0;stroke-dasharray:none;stroke-opacity:1;paint-order:markers fill stroke"
       d="M 102.62908,32.267325 C 84.548338,30.068157 71.359065,51.820288 79.399927,65.401488 70.182717,67.638719 57.512809,70.956904 56.424006,82.286669 51.539178,110.99318 53.021795,141.67033 39.489987,168.24097 30.61103,183.62084 13.507781,191.32833 1.6034424,203.89559 c -3.7860487,6.95612 7.3905229,9.16436 12.1078766,10.4672 21.426785,4.66346 43.441604,5.69259 65.273869,6.97689 -0.927996,33.7017 53.377182,28.63898 52.532982,-0.52868 23.49483,-1.75801 47.49049,-2.2644 70.23533,-8.93111 13.18194,-2.81056 3.39385,-13.6877 -3.57102,-17.17117 -13.21023,-10.37334 -28.39951,-20.68582 -33.08071,-37.86901 -5.67369,-16.71854 -7.30601,-34.41901 -9.24123,-51.86659 -22.83501,8.51953 -47.4886,-22.234881 -25.03689,-38.673009 -2.34234,-1.368111 -3.2524,-1.957905 -5.3335,-2.554691 1.99,-1.695807 2.83877,-4.548471 2.81933,-9.331943 0.055,-13.286176 -13.35149,-22.4729 -25.6804,-22.146152 z m 3.9552,45.249896 c 0.0313,0.07685 -0.14431,0.233106 0,0 z"
       sodipodi:nodetypes="cccccccccccccccccc" />
    <path
       style="fill:#000000;fill-opacity:1;stroke:#ae1617;stroke-width:0;stroke-dasharray:none;stroke-opacity:1;paint-order:markers fill stroke"
       d=""
       id="path11598"
       transform="scale(0.26458333)" />
  </g>
</svg>
