<?xml version="1.0" encoding="UTF-8" standalone="no"?>
<!-- Created with Inkscape (http://www.inkscape.org/) -->

<svg
   width="210mm"
   height="297mm"
   viewBox="0 0 210 297"
   version="1.1"
   id="svg5"
   inkscape:version="1.2.1 (9c6d41e410, 2022-07-14)"
   sodipodi:docname="notification-bell-3.svg"
   xmlns:inkscape="http://www.inkscape.org/namespaces/inkscape"
   xmlns:sodipodi="http://sodipodi.sourceforge.net/DTD/sodipodi-0.dtd"
   xmlns="http://www.w3.org/2000/svg"
   xmlns:svg="http://www.w3.org/2000/svg">
  <sodipodi:namedview
     id="namedview7"
     pagecolor="#ffffff"
     bordercolor="#666666"
     borderopacity="1.0"
     inkscape:showpageshadow="2"
     inkscape:pageopacity="0.0"
     inkscape:pagecheckerboard="0"
     inkscape:deskcolor="#d1d1d1"
     inkscape:document-units="mm"
     showgrid="false"
     inkscape:zoom="2.9540685"
     inkscape:cx="347.48687"
     inkscape:cy="250.50198"
     inkscape:window-width="1920"
     inkscape:window-height="1009"
     inkscape:window-x="-8"
     inkscape:window-y="-8"
     inkscape:window-maximized="1"
     inkscape:current-layer="layer1" />
  <defs
     id="defs2">
    <clipPath
       clipPathUnits="userSpaceOnUse"
       id="clipPath623">
      <path
         id="path625"
         style="fill:#ff0000;fill-opacity:1;fill-rule:nonzero;stroke:none;stroke-width:0.264583"
         d="m 67.488387,51.421668 v 54.982692 h 28.706776 c 0.01969,-0.0155 0.04758,-0.0271 0.08475,-0.032 0.0438,-0.006 0.01114,-0.001 0.09715,-0.0176 0.0441,-0.008 0.08854,-0.0137 0.132292,-0.0227 0.03584,-0.008 0.06132,-0.0137 0.0832,-0.0191 -0.02705,0.002 -0.05412,0.004 -0.08113,0.005 -0.03052,0.001 -0.06095,0.002 -0.09147,0.003 -0.08862,0.003 -0.09115,-0.0864 -0.0026,-0.0894 0.02952,-0.001 0.05886,-0.002 0.08837,-0.003 0.103677,-0.007 0.207393,-0.0142 0.311092,-0.0202 0.04274,-0.002 0.08599,-0.003 0.128674,-0.006 0.143711,-0.0108 0.122852,-0.0149 0.225312,-0.0202 0.0068,-0.002 0.01386,-0.004 0.02119,-0.005 0.01725,-0.004 0.03523,-0.005 0.05271,-0.008 0.0083,-6e-5 0.01664,10e-4 0.02479,0 0.03085,-0.005 0.123446,-0.0322 0.142628,-0.0372 0.10803,-0.0212 0.07677,-0.017 0.180867,-0.0315 0.07283,-0.0102 0.14878,-0.0195 0.216008,-0.001 0.01035,-0.005 0.02053,-0.0101 0.031,-0.0134 0.06143,-0.0242 0.122841,-0.0458 0.19017,-0.0398 0.128849,0 0.257691,-4e-5 0.38654,0 0.122751,9e-5 0.245187,5.3e-4 0.367937,-5.3e-4 0.04278,-5e-5 0.08589,0 0.128673,0 0.01542,-0.004 0.03056,-0.005 0.04599,-0.005 0.01185,-0.003 0.02368,-0.006 0.03462,-0.006 0.01312,-7.9e-4 0.02508,0.002 0.03359,0.0114 2.65e-4,5.3e-4 7.94e-4,5.3e-4 0.0011,10e-4 0.05389,0.003 0.116464,-0.0121 0.09302,0.0444 0.164121,0.005 0.328572,0.007 0.492992,0.006 0.0024,-3e-5 0.0048,10e-6 0.0072,0 0.0013,-4e-5 0.0028,4e-5 0.0041,0 0.07399,-0.002 0.147923,-0.003 0.221691,-0.007 0.03867,-0.002 0.06348,-0.003 0.09457,-0.005 V 51.421684 Z m 29.898949,54.901042 c -0.02902,0.008 -0.05761,0.0168 -0.07648,0.0202 -0.05261,0.009 -0.04714,2e-5 -0.09198,0.0108 -0.03086,0.007 -0.08406,0.0267 -0.111104,0.0367 -0.01595,0.004 -0.03385,0.009 -0.05219,0.0139 h 0.361736 c -6.1e-5,-1.6e-4 5.8e-5,-2.6e-4 0,-5.3e-4 -0.03853,1.1e-4 -0.05329,-0.006 -0.02222,-0.0589 -0.0029,-0.008 -0.0054,-0.0152 -0.0078,-0.0222 z" />
    </clipPath>
    <clipPath
       clipPathUnits="userSpaceOnUse"
       id="clipPath633">
      <path
         id="path635"
         style="fill:#ff0000;fill-opacity:1;fill-rule:nonzero;stroke:none;stroke-width:0.264583"
         d="m 95.998276,51.167419 v 54.982691 h 1.348753 c 0.0284,-0.008 0.05582,-0.0157 0.06511,-0.0181 0.10803,-0.0212 0.07677,-0.017 0.180867,-0.0315 0.07283,-0.0102 0.14878,-0.0195 0.216008,-0.001 0.01035,-0.005 0.02053,-0.01 0.031,-0.0135 0.06143,-0.0242 0.122841,-0.0458 0.190169,-0.0398 0.12885,0 0.257691,-4e-5 0.386541,0 0.122751,9e-5 0.245184,5.3e-4 0.367937,-5.3e-4 0.04278,-5e-5 0.08589,0 0.128672,0 0.01543,-0.004 0.03056,-0.005 0.04599,-0.005 0.01185,-0.003 0.02368,-0.006 0.03462,-0.006 0.01312,-7.9e-4 0.02508,0.002 0.03359,0.0114 2.65e-4,5.3e-4 7.94e-4,5.3e-4 0.0011,10e-4 0.05409,0.003 0.116662,-0.0124 0.0925,0.045 0.164285,0.005 0.328911,0.008 0.493508,0.007 0.0024,-1e-5 0.0048,0 0.0072,0 0.0013,-4e-5 0.0028,4e-5 0.0041,0 0.07399,-0.002 0.147921,-0.003 0.221692,-0.007 0.299997,-0.0144 0.350957,-0.0172 0.478007,-0.0176 0.0423,-1.3e-4 0.093,1e-5 0.16433,0 -0.01,0.0157 -0.0164,0.0364 -0.0243,0.0548 0.005,0.007 0.009,0.0144 0.014,0.0212 H 128.4521 V 51.167419 Z" />
    </clipPath>
  </defs>
  <g
     inkscape:label="Layer 1"
     inkscape:groupmode="layer"
     id="layer1">
    <circle
       style="fill:#000000;stroke:#000000;stroke-width:3"
       id="path111"
       cx="97.805786"
       cy="45.678524"
       r="6.6278648" />
    <path
       style="fill:none;stroke:#000000;stroke-width:0.264583px;stroke-linecap:butt;stroke-linejoin:miter;stroke-opacity:1"
       d="m 92.212183,51.552689 c 0,0 -9.499883,1.266653 -10.259872,13.17317 -0.759992,11.906517 -4.17995,18.493103 -13.046505,29.512964 -8.866555,11.019867 31.032945,12.033187 31.032945,12.033187"
       id="path294"
       sodipodi:nodetypes="cssc"
       clip-path="url(#clipPath623)" />
    <path
       style="fill:none;stroke:#000000;stroke-width:0.264583px;stroke-linecap:butt;stroke-linejoin:miter;stroke-opacity:1"
       d="m 103.72826,51.2988 c 0,0 9.49989,1.266653 10.25988,13.17317 0.75999,11.906517 4.17995,18.4931 13.0465,29.51296 8.86656,11.01987 -31.032941,12.03319 -31.032941,12.03319"
       id="path294-9"
       sodipodi:nodetypes="cssc"
       clip-path="url(#clipPath633)" />
    <path
       style="fill:#000000;stroke:#000000;stroke-width:3.83829"
       d="m 356.62681,399.91931 c -0.74474,-0.0772 -4.17222,-0.37231 -7.61662,-0.65586 -19.58663,-1.6124 -38.80081,-4.37268 -52.97778,-7.61071 -29.16467,-6.66122 -42.63604,-16.17813 -39.14936,-27.65726 0.89513,-2.94702 2.46721,-5.30286 9.71377,-14.55657 30.49749,-38.94471 40.46884,-62.39193 43.65823,-102.66061 0.73504,-9.2805 1.44543,-13.29634 3.44321,-19.46468 4.69102,-14.48393 15.71306,-25.77188 29.72641,-30.4436 4.17571,-1.39208 5.42645,-1.48004 6.53226,-0.45939 2.46687,2.27691 6.81656,4.58685 11.13944,5.91569 2.72452,0.83752 3.45286,0.91537 8.56331,0.91537 5.11045,0 5.83878,-0.0779 8.5633,-0.91537 4.55758,-1.40099 8.11594,-3.33748 11.8226,-6.43398 1.84768,-1.54352 2.2804,-1.5462 6.8886,-0.0426 13.83145,4.51299 24.52843,15.15651 29.58059,29.43279 2.0188,5.70467 3.12839,11.59181 3.73244,19.8032 1.46095,19.8598 4.47757,34.30632 10.24958,49.08485 2.30488,5.90137 8.05743,17.4875 11.59713,23.35762 5.55461,9.21156 14.63485,21.92901 25.01595,35.03642 6.40544,8.08765 7.96078,11.79254 6.84638,16.30841 -0.71032,2.8784 -2.08162,4.99669 -4.94842,7.64402 -11.3908,10.51871 -43.84504,18.39729 -90.89902,22.06662 -13.06692,1.01898 -28.30095,1.66529 -31.482,1.33565 z"
       id="path706"
       transform="scale(0.26458333)" />
    <circle
       style="fill:#000000;stroke:#000000;stroke-width:3"
       id="path714"
       cx="98.835793"
       cy="107.4341"
       r="3.448281" />
    <circle
       style="fill:#ffffff;stroke:#ffffff;stroke-width:0.264583;stroke-dasharray:none;stroke-opacity:1"
       id="path798"
       cx="113.65892"
       cy="58.396866"
       r="10.031363" />
  </g>
</svg>
