<?xml version="1.0" encoding="UTF-8" standalone="no"?>
<!-- Created with Inkscape (http://www.inkscape.org/) -->

<svg
   width="210mm"
   height="297mm"
   viewBox="0 0 210 297"
   version="1.1"
   id="svg5"
   inkscape:version="1.2.1 (9c6d41e410, 2022-07-14)"
   sodipodi:docname="notification-bell-4.svg"
   xmlns:inkscape="http://www.inkscape.org/namespaces/inkscape"
   xmlns:sodipodi="http://sodipodi.sourceforge.net/DTD/sodipodi-0.dtd"
   xmlns="http://www.w3.org/2000/svg"
   xmlns:svg="http://www.w3.org/2000/svg">
  <sodipodi:namedview
     id="namedview7"
     pagecolor="#ffffff"
     bordercolor="#666666"
     borderopacity="1.0"
     inkscape:showpageshadow="2"
     inkscape:pageopacity="0.0"
     inkscape:pagecheckerboard="0"
     inkscape:deskcolor="#d1d1d1"
     inkscape:document-units="mm"
     showgrid="false"
     inkscape:zoom="2.9540685"
     inkscape:cx="146.57751"
     inkscape:cy="759.96885"
     inkscape:window-width="1920"
     inkscape:window-height="1009"
     inkscape:window-x="-8"
     inkscape:window-y="-8"
     inkscape:window-maximized="1"
     inkscape:current-layer="layer1" />
  <defs
     id="defs2">
    <inkscape:path-effect
       effect="simplify"
       id="path-effect11608"
       is_visible="true"
       lpeversion="1"
       steps="1"
       threshold="0.000408163"
       smooth_angles="360"
       helper_size="0"
       simplify_individual_paths="false"
       simplify_just_coalesce="false" />
    <inkscape:path-effect
       effect="bool_op"
       operand-path=""
       id="path-effect8406"
       is_visible="false"
       lpeversion="1"
       operation="diff"
       swap-operands="false"
       filltype-this="from-curve"
       filter=""
       filltype-operand="from-curve" />
    <inkscape:path-effect
       effect="bounding_box"
       id="path-effect8404"
       is_visible="false"
       lpeversion="1"
       linkedpath=""
       visualbounds="false" />
    <filter
       id="selectable_hidder_filter"
       width="1"
       height="1"
       x="0"
       y="0"
       style="color-interpolation-filters:sRGB;"
       inkscape:label="LPE boolean visibility">
      <feComposite
         id="boolops_hidder_primitive"
         result="composite1"
         operator="arithmetic"
         in2="SourceGraphic"
         in="BackgroundImage" />
    </filter>
    <inkscape:path-effect
       effect="bool_op"
       operand-path=""
       id="path-effect8400"
       is_visible="true"
       lpeversion="1"
       operation="diff"
       swap-operands="false"
       filltype-this="from-curve"
       filter=""
       filltype-operand="from-curve" />
    <clipPath
       clipPathUnits="userSpaceOnUse"
       id="clipPath623">
      <path
         id="path625"
         style="fill:#ff0000;fill-opacity:1;fill-rule:nonzero;stroke:none;stroke-width:0.264583"
         d="m 67.488387,51.421668 v 54.982692 h 28.706776 c 0.01969,-0.0155 0.04758,-0.0271 0.08475,-0.032 0.0438,-0.006 0.01114,-0.001 0.09715,-0.0176 0.0441,-0.008 0.08854,-0.0137 0.132292,-0.0227 0.03584,-0.008 0.06132,-0.0137 0.0832,-0.0191 -0.02705,0.002 -0.05412,0.004 -0.08113,0.005 -0.03052,0.001 -0.06095,0.002 -0.09147,0.003 -0.08862,0.003 -0.09115,-0.0864 -0.0026,-0.0894 0.02952,-0.001 0.05886,-0.002 0.08837,-0.003 0.103677,-0.007 0.207393,-0.0142 0.311092,-0.0202 0.04274,-0.002 0.08599,-0.003 0.128674,-0.006 0.143711,-0.0108 0.122852,-0.0149 0.225312,-0.0202 0.0068,-0.002 0.01386,-0.004 0.02119,-0.005 0.01725,-0.004 0.03523,-0.005 0.05271,-0.008 0.0083,-6e-5 0.01664,10e-4 0.02479,0 0.03085,-0.005 0.123446,-0.0322 0.142628,-0.0372 0.10803,-0.0212 0.07677,-0.017 0.180867,-0.0315 0.07283,-0.0102 0.14878,-0.0195 0.216008,-0.001 0.01035,-0.005 0.02053,-0.0101 0.031,-0.0134 0.06143,-0.0242 0.122841,-0.0458 0.19017,-0.0398 0.128849,0 0.257691,-4e-5 0.38654,0 0.122751,9e-5 0.245187,5.3e-4 0.367937,-5.3e-4 0.04278,-5e-5 0.08589,0 0.128673,0 0.01542,-0.004 0.03056,-0.005 0.04599,-0.005 0.01185,-0.003 0.02368,-0.006 0.03462,-0.006 0.01312,-7.9e-4 0.02508,0.002 0.03359,0.0114 2.65e-4,5.3e-4 7.94e-4,5.3e-4 0.0011,10e-4 0.05389,0.003 0.116464,-0.0121 0.09302,0.0444 0.164121,0.005 0.328572,0.007 0.492992,0.006 0.0024,-3e-5 0.0048,10e-6 0.0072,0 0.0013,-4e-5 0.0028,4e-5 0.0041,0 0.07399,-0.002 0.147923,-0.003 0.221691,-0.007 0.03867,-0.002 0.06348,-0.003 0.09457,-0.005 V 51.421684 Z m 29.898949,54.901042 c -0.02902,0.008 -0.05761,0.0168 -0.07648,0.0202 -0.05261,0.009 -0.04714,2e-5 -0.09198,0.0108 -0.03086,0.007 -0.08406,0.0267 -0.111104,0.0367 -0.01595,0.004 -0.03385,0.009 -0.05219,0.0139 h 0.361736 c -6.1e-5,-1.6e-4 5.8e-5,-2.6e-4 0,-5.3e-4 -0.03853,1.1e-4 -0.05329,-0.006 -0.02222,-0.0589 -0.0029,-0.008 -0.0054,-0.0152 -0.0078,-0.0222 z" />
    </clipPath>
    <clipPath
       clipPathUnits="userSpaceOnUse"
       id="clipPath633">
      <path
         id="path635"
         style="fill:#ff0000;fill-opacity:1;fill-rule:nonzero;stroke:none;stroke-width:0.264583"
         d="m 95.998276,51.167419 v 54.982691 h 1.348753 c 0.0284,-0.008 0.05582,-0.0157 0.06511,-0.0181 0.10803,-0.0212 0.07677,-0.017 0.180867,-0.0315 0.07283,-0.0102 0.14878,-0.0195 0.216008,-0.001 0.01035,-0.005 0.02053,-0.01 0.031,-0.0135 0.06143,-0.0242 0.122841,-0.0458 0.190169,-0.0398 0.12885,0 0.257691,-4e-5 0.386541,0 0.122751,9e-5 0.245184,5.3e-4 0.367937,-5.3e-4 0.04278,-5e-5 0.08589,0 0.128672,0 0.01543,-0.004 0.03056,-0.005 0.04599,-0.005 0.01185,-0.003 0.02368,-0.006 0.03462,-0.006 0.01312,-7.9e-4 0.02508,0.002 0.03359,0.0114 2.65e-4,5.3e-4 7.94e-4,5.3e-4 0.0011,10e-4 0.05409,0.003 0.116662,-0.0124 0.0925,0.045 0.164285,0.005 0.328911,0.008 0.493508,0.007 0.0024,-1e-5 0.0048,0 0.0072,0 0.0013,-4e-5 0.0028,4e-5 0.0041,0 0.07399,-0.002 0.147921,-0.003 0.221692,-0.007 0.299997,-0.0144 0.350957,-0.0172 0.478007,-0.0176 0.0423,-1.3e-4 0.093,1e-5 0.16433,0 -0.01,0.0157 -0.0164,0.0364 -0.0243,0.0548 0.005,0.007 0.009,0.0144 0.014,0.0212 H 128.4521 V 51.167419 Z" />
    </clipPath>
    <clipPath
       clipPathUnits="userSpaceOnUse"
       id="clipPath3635">
      <g
         id="g3639"
         transform="translate(-18.27141,-0.71652605)">
        <g
           inkscape:label="Clip"
           id="use3637"
           style="fill:#dd1515;fill-opacity:1"
           transform="translate(18.27141,0.716526)"
           clip-path="url(#clipPath3635)">
          <g
             id="g3656"
             style="fill:#dd1515;fill-opacity:1">
            <path
               style="color:#000000;fill:#dd1515;fill-opacity:1;stroke-width:0.264583;-inkscape-stroke:none"
               d="M 123.69028,58.396866 A 10.031363,10.031363 0 0 1 113.65892,68.428228 10.031363,10.031363 0 0 1 103.62756,58.396866 10.031363,10.031363 0 0 1 113.65892,48.365503 10.031363,10.031363 0 0 1 123.69028,58.396866 Z"
               id="path3652" />
            <path
               style="color:#000000;fill:#dd1515;fill-opacity:1;-inkscape-stroke:none"
               d="m 113.6582,48.232422 c -5.61166,0 -10.16211,4.552404 -10.16211,10.164062 0,5.611659 4.55045,10.164063 10.16211,10.164063 5.61166,0 10.16407,-4.552404 10.16407,-10.164063 0,-5.611658 -4.55241,-10.164062 -10.16407,-10.164062 z m 0,0.265625 c 5.46867,0 9.90039,4.42977 9.90039,9.898437 0,5.468668 -4.43172,9.900391 -9.90039,9.900391 -5.46866,0 -9.89843,-4.431723 -9.89843,-9.900391 0,-5.468667 4.42977,-9.898437 9.89843,-9.898437 z"
               id="path3654" />
          </g>
        </g>
      </g>
    </clipPath>
    <inkscape:path-effect
       effect="fill_between_many"
       method="originald"
       linkedpaths="#g6056,0,1"
       id="path-effect8380" />
  </defs>
  <g
     inkscape:label="Layer 1"
     inkscape:groupmode="layer"
     id="layer1">
    <path
       inkscape:original-d="M 0,0"
       inkscape:path-effect="#path-effect8380"
       d="M 0,0"
       id="path8382"
       class="UnoptimicedTransforms" />
    <g
       id="g6038"
       style="fill:#000000;stroke:none"
       transform="translate(4.120023,-12.897467)" />
    <g
       id="g6048"
       style="fill:#000000;stroke:none"
       transform="translate(4.120023,-12.897467)" />
    <g
       id="path6052"
       style="stroke:#ae1617;stroke-width:0;stroke-dasharray:none;stroke-opacity:1"
       transform="translate(37.691545,23.04314)">
      <path
         style="color:#000000;fill:#000000;stroke:#ae1617;stroke-width:0;stroke-dasharray:none;stroke-opacity:1;paint-order:markers fill stroke"
         d="m 78.998047,37.058594 c -4.934457,0 -8.978516,4.041859 -8.978516,8.976562 0,1.85624 0.706971,3.489406 1.683594,4.925781 -0.02927,0.0097 -0.04814,0.0095 -0.07813,0.01953 -4.127693,1.376075 -7.356968,4.695089 -8.726563,8.923828 -0.553563,1.70918 -0.775065,2.966204 -0.972656,5.460937 -0.829737,10.476123 -3.271875,16.221283 -11.267578,26.431641 -1.927735,2.461673 -2.4925,3.27997 -2.800781,4.294922 -0.319684,1.052491 -0.245876,2.167075 0.216797,3.15039 0.108349,0.230273 0.387801,0.376748 0.53125,0.589844 0.350122,0.551631 0.795845,1.048701 1.345703,1.496101 0.150347,0.12044 0.201018,0.28966 0.363281,0.40429 0.06611,0.0467 0.177887,0.079 0.246094,0.125 0.03961,0.0269 0.06334,0.0633 0.103515,0.0898 0.156995,0.10354 0.415436,0.1586 0.582032,0.25781 1.091824,0.64957 2.405256,1.23874 3.958984,1.75781 0.648245,0.21649 1.331012,0.40078 2.027344,0.58984 0.68282,0.18679 1.227008,0.40364 1.982422,0.57618 0.305701,0.0698 0.807663,0.0942 1.128906,0.16211 0.608273,0.12721 1.14595,0.30558 1.767578,0.41992 2.682592,0.4934 5.114406,0.6637 7.6875,0.9375 1.301452,0.14653 2.28774,0.41156 3.623047,0.52148 0.4191,0.0345 0.564938,0.0494 0.917969,0.0801 -0.01852,0.18692 -0.111328,0.34955 -0.111328,0.54102 10e-7,3.18137 2.617455,5.80078 5.798828,5.80078 3.181375,0 5.796875,-2.61982 5.796875,-5.80078 0,-0.3464 -0.139818,-0.64817 -0.199219,-0.97852 3.513792,-0.31248 6.634675,-0.72879 9.466797,-1.21875 0.39424,-0.0667 0.729882,-0.0648 1.121094,-0.13672 0.519993,-0.0956 0.967493,-0.24702 1.478515,-0.35156 0.657821,-0.13749 1.46217,-0.24057 2.072266,-0.38867 0.520693,-0.12641 0.863853,-0.29105 1.349613,-0.42383 0.82979,-0.22575 1.5939,-0.47302 2.35352,-0.73828 1.17965,-0.4086 2.19676,-0.88242 3.0957,-1.375 0.3295,-0.18009 0.80156,-0.29105 1.09766,-0.48633 0.26031,-0.17168 0.43554,-0.39378 0.66992,-0.58203 0.1429,-0.1158 0.38878,-0.19371 0.51953,-0.31445 0.18624,-0.17198 0.30375,-0.36095 0.46289,-0.53907 0.0497,-0.0573 0.0995,-0.11319 0.14648,-0.17187 0.50778,-0.609371 0.91415,-1.246721 1.09571,-1.982426 0.2083,-0.844119 0.15037,-1.763017 -0.22461,-2.65625 -0.36559,-0.870853 -0.96481,-1.723294 -1.83985,-2.828125 -2.72041,-3.434852 -5.10263,-6.777233 -6.51953,-9.126954 -0.86243,-1.430238 -2.417831,-4.569047 -2.966799,-5.974609 -1.476695,-3.780903 -2.242984,-7.425282 -2.623047,-12.591797 -0.165278,-2.246721 -0.480126,-3.953604 -1.060547,-5.59375 -1.467472,-4.146711 -4.622539,-7.299303 -8.685546,-8.625 -0.05578,-0.0182 -0.09525,-0.01563 -0.148438,-0.0332 0.859625,-1.376181 1.488281,-2.906878 1.488281,-4.638672 0,-4.934456 -4.042111,-8.976562 -8.976562,-8.976562 z m 0,4.701172 c 2.39701,0 4.277344,1.878383 4.277344,4.27539 0,2.397008 -1.880722,4.279297 -4.277344,4.279297 -2.396618,0 -4.279297,-1.882679 -4.279297,-4.279297 0,-2.396617 1.88229,-4.27539 4.279297,-4.27539 z m 6.169922,11.341796 c 0.142761,0.03775 0.345783,0.0964 0.625,0.1875 3.258721,1.06327 5.759832,3.538622 6.966797,6.949219 0.488807,1.381257 0.759659,2.785877 0.914062,4.884766 0.393059,5.343192 1.222558,9.341959 2.800781,13.382812 0.667852,1.709972 2.16317,4.717132 3.169922,6.386719 1.522059,2.524133 3.946149,5.911362 6.718749,9.412109 0.81635,1.030737 1.27935,1.753462 1.46485,2.195313 0.19738,0.47017 0.19009,0.552842 0.0918,0.951172 -0.13292,0.538639 -0.25004,0.740177 -0.91211,1.351562 -1.1482,1.060286 -3.91509,2.313186 -7.886716,3.277346 -3.813806,0.92583 -8.811083,1.64747 -14.658203,2.13086 -1.066375,-1.31645 -2.625347,-2.2168 -4.435547,-2.2168 -1.982583,0 -3.659303,1.07933 -4.707032,2.61524 -0.379954,-0.0348 -0.924943,-0.0829 -1.673828,-0.14454 -5.128312,-0.42216 -10.173871,-1.14974 -13.828125,-1.98437 -3.763913,-0.85968 -6.462297,-1.92464 -7.9375,-2.966798 -0.738332,-0.5216 -1.159572,-1.025808 -1.349609,-1.429688 -0.197509,-0.419762 -0.223136,-0.712849 -0.07422,-1.203125 0.08428,-0.277479 0.167629,-0.470078 0.496094,-0.958984 0.328465,-0.488906 0.892024,-1.231387 1.845703,-2.449219 8.144767,-10.400706 10.975631,-17.055144 11.833984,-27.892578 0.191581,-2.418856 0.344265,-3.277588 0.84961,-4.837891 1.112856,-3.436037 3.716166,-6.091445 7.003906,-7.1875 0.465215,-0.155091 0.723263,-0.201541 0.751953,-0.210937 0.862632,0.697026 1.922039,1.303882 3.09375,1.664062 0.776897,0.238819 1.292372,0.304688 2.666016,0.304688 1.373654,0 1.887592,-0.06602 2.664062,-0.304688 1.31973,-0.405683 2.43373,-1.02761 3.50586,-1.90625 z M 79.039062,107.5 c 0.503344,0.0192 2.00203,0.10903 2.015625,0.10938 0.01135,0.0689 0.07031,0.10694 0.07031,0.18164 0,0.65158 -0.447082,1.09961 -1.097656,1.09961 -0.65058,0 -1.09961,-0.44903 -1.09961,-1.09961 0,-0.11957 0.0826,-0.18673 0.111328,-0.29102 z m 0.988068,-4.65541 c -2.71509,0 -4.949217,2.23217 -4.949218,4.94726 10e-7,2.71509 2.234128,4.94922 4.949218,4.94922 2.715093,0 4.947263,-2.23413 4.947263,-4.94922 0,-2.71508 -2.23217,-4.94726 -4.947263,-4.94726 z m 0,3 c 1.093771,0 1.947263,0.85349 1.947263,1.94726 0,1.09377 -0.853492,1.94922 -1.947263,1.94922 -1.093771,0 -1.949218,-0.85544 -1.949218,-1.94922 0,-1.09377 0.855447,-1.94726 1.949218,-1.94726 z m 3.448133,1.94777 a 3.448281,3.448281 0 0 1 -3.448277,3.44828 3.448281,3.448281 0 0 1 -3.448282,-3.44828 3.448281,3.448281 0 0 1 3.448282,-3.44828 3.448281,3.448281 0 0 1 3.448277,3.44828 z m 1.54991,-56.59816 c -0.3838,0.0024 -0.70165,0.209176 -0.96093,0.425782 -0.93795,0.783551 -1.79998,1.251593 -2.951175,1.605468 -0.705026,0.216713 -0.768256,0.220704 -2.115234,0.220704 -1.346982,0 -1.412172,-0.004 -2.117188,-0.220704 -1.077228,-0.331136 -2.192087,-0.936372 -2.751953,-1.453125 -0.221745,-0.204668 -0.587202,-0.335319 -0.939453,-0.310546 -0.352252,0.02477 -0.731125,0.136262 -1.294922,0.324218 -3.86472,1.288406 -6.898325,4.400423 -8.1875,8.38086 -0.537612,1.659929 -0.737991,2.795984 -0.933594,5.265625 -0.838506,10.586835 -3.404064,16.620153 -11.445312,26.888671 -1.921131,2.45324 -2.393236,3.15166 -2.65625,4.01758 -0.262726,0.86497 -0.203038,1.74421 0.171875,2.54101 0.374913,0.7968 1.04191,1.508957 1.960937,2.158207 1.838055,1.2985 4.70674,2.37259 8.59961,3.26172 3.787009,0.86495 8.885435,1.59516 14.08789,2.02343 0.910066,0.0749 1.83355,0.15619 2.003906,0.17383 0.537333,0.0557 1.706064,0.0248 3.257813,-0.041 1.551749,-0.0658 3.42847,-0.17716 5.16406,-0.3125 6.24391,-0.48691 11.52583,-1.2521 15.64453,-2.25196 4.118707,-0.99985 7.073867,-2.20701 8.710937,-3.71875 0.79839,-0.737267 1.24655,-1.420527 1.45703,-2.273427 0.16833,-0.68212 0.12779,-1.38133 -0.18359,-2.12305 -0.31138,-0.74172 -0.86426,-1.54508 -1.72266,-2.62891 -2.73689,-3.45565 -5.13201,-6.812148 -6.58203,-9.216794 -0.90959,-1.508449 -2.441687,-4.599016 -3.029297,-6.103516 -1.50819,-3.861541 -2.29557,-7.618313 -2.67968,-12.839844 -0.16186,-2.20026 -0.4624,-3.813323 -1.01367,-5.371094 -1.38545,-3.914936 -4.33845,-6.858421 -8.14844,-8.101562 -0.61417,-0.200396 -0.9619,-0.322686 -1.34571,-0.320313 z m 0.006,1.013672 c 0.10047,-6.21e-4 0.42031,0.07601 1.02539,0.273438 3.50915,1.14498 6.21591,3.83307 7.50391,7.472656 0.51701,1.460949 0.80315,2.962492 0.96094,5.107422 0.38897,5.287603 1.19798,9.176008 2.74414,13.134766 0.63205,1.618305 2.14394,4.659992 3.107417,6.257812 1.4893,2.469799 3.89981,5.841927 6.65625,9.322267 0.83637,1.05602 1.33767,1.81246 1.58203,2.39453 0.24436,0.58207 0.26129,0.97167 0.13477,1.48437 -0.1654,0.67025 -0.4435,1.10789 -1.16211,1.77149 -1.37675,1.271337 -4.22113,2.497617 -8.261717,3.478517 -4.0406,0.98089 -9.27664,1.74262 -15.48242,2.22656 -1.72169,0.13426 -3.590591,0.24333 -5.128909,0.30859 -1.538318,0.0653 -2.805055,0.0765 -3.109375,0.0449 -0.223735,-0.0232 -1.112796,-0.0987 -2.02539,-0.17382 -5.162127,-0.42495 -10.232303,-1.15346 -13.947266,-2.00196 -3.823609,-0.87331 -6.595697,-1.94115 -8.238281,-3.10156 -0.821292,-0.580207 -1.353832,-1.177107 -1.628907,-1.761717 -0.275074,-0.58461 -0.315719,-1.15888 -0.117187,-1.8125 0.210657,-0.69354 0.570872,-1.24204 2.484375,-3.68555 8.096992,-10.339699 10.80704,-16.713558 11.65625,-27.435543 0.193357,-2.441287 0.369127,-3.429056 0.888672,-5.033203 1.193155,-3.683968 3.992298,-6.546759 7.542969,-7.730469 0.541025,-0.180365 0.880407,-0.263958 1.042968,-0.275391 0.162561,-0.01143 0.108855,-0.02046 0.179688,0.04492 0.745519,0.68811 1.932284,1.305694 3.142578,1.677735 0.736709,0.226465 1.05872,0.265625 2.416016,0.265625 1.357298,0 1.677355,-0.03918 2.414059,-0.265625 1.26052,-0.387482 2.2812,-0.941864 3.30469,-1.796875 0.22957,-0.191784 0.21399,-0.190785 0.31445,-0.191407 z m -9.482471,53.783238 c -0.197046,-0.0204 -1.1039,-0.0985 -2.015231,-0.17353 -5.182296,-0.42661 -10.266047,-1.15694 -14.017037,-2.01367 -7.716486,-1.76244 -11.280786,-4.280457 -10.358268,-7.317647 0.236836,-0.77973 0.652782,-1.40304 2.570101,-3.85142 8.069128,-10.304122 10.707381,-16.507866 11.55124,-27.162287 0.19448,-2.455466 0.382437,-3.51799 0.911016,-5.15003 1.241166,-3.832206 4.157414,-6.81881 7.865113,-8.054869 1.104823,-0.368321 1.435748,-0.391594 1.728327,-0.121547 0.652693,0.602432 1.803548,1.213604 2.94731,1.565193 0.720863,0.221594 0.913569,0.242192 2.265709,0.242192 1.35214,0 1.544844,-0.02061 2.265711,-0.242192 1.20586,-0.370679 2.14734,-0.883042 3.12806,-1.702324 0.48886,-0.40839 0.60335,-0.409099 1.82261,-0.01127 3.65957,1.194062 6.48981,4.01016 7.82653,7.787425 0.53414,1.509361 0.82772,3.067 0.98754,5.239597 0.38654,5.254572 1.18469,9.07688 2.71187,12.987033 0.60983,1.561404 2.13186,4.626901 3.068397,6.180037 1.46966,2.437225 3.87214,5.802052 6.61881,9.270052 1.69477,2.13986 2.10629,3.12011 1.81144,4.31493 -0.18794,0.76158 -0.55077,1.32204 -1.30927,2.02248 -3.01382,2.783077 -11.600667,4.867617 -24.050367,5.838457 -3.457288,0.26961 -7.487958,0.44061 -8.329611,0.35339 z m 9.388581,-54.464877 -0.0352,0.261718 c 0,0 2.34185,0.312167 4.78515,2.097657 2.44331,1.785489 4.9816,5.034545 5.35938,10.953125 0.7614,11.928588 4.20391,18.560927 13.076167,29.58789 1.09282,1.35822 1.41748,2.53295 1.18555,3.56836 -0.23193,1.03541 -1.03308,1.95597 -2.26367,2.767577 -2.46119,1.62321 -6.60937,2.78558 -11.035157,3.59961 -8.85158,1.62806 -18.820309,1.88281 -18.820309,1.88281 l 0.008,0.26367 c 0,0 9.979819,-0.25315 18.861329,-1.88672 4.440747,-0.81678 8.606557,-1.97255 11.132807,-3.63867 1.26313,-0.83306 2.12204,-1.800407 2.375,-2.929687 0.25296,-1.12927 -0.11251,-2.39622 -1.23633,-3.79297 -8.860817,-11.01273 -12.258997,-17.555026 -13.017577,-29.439448 -0.3822,-5.987925 -2.97407,-9.323975 -5.4707,-11.148438 -2.49663,-1.824462 -4.9043,-2.146484 -4.9043,-2.146484 z m -11.550779,0.253906 c 0,0 -2.40961,0.322022 -4.90625,2.146484 -2.49663,1.824463 -5.086542,5.160513 -5.468752,11.148438 -0.758578,11.884422 -4.156753,18.426717 -13.017575,29.439452 -1.123817,1.39675 -1.491239,2.66369 -1.238281,3.79297 0.252958,1.12928 1.113828,2.096617 2.376953,2.929687 2.526252,1.66612 6.692058,2.82189 11.132813,3.63867 8.881512,1.63356 18.861332,1.88672 18.861332,1.88672 l 0.006,-0.26367 c 0,0 -9.96873,-0.25476 -18.820316,-1.88282 -4.425792,-0.81403 -8.572022,-1.9764 -11.033203,-3.59961 -1.230591,-0.8116 -2.033694,-1.732167 -2.265625,-2.767567 -0.231932,-1.03541 0.09468,-2.21015 1.1875,-3.56836 8.87227,-11.026968 12.312818,-17.659306 13.074222,-29.587894 0.37778,-5.91858 2.918022,-9.167635 5.361322,-10.953125 2.44331,-1.78549 4.78516,-2.097656 4.78516,-2.097656 z m 5.61133,-13.871095 c -4.471125,0 -8.128907,3.655829 -8.128907,8.126953 0,4.471125 3.657782,8.128907 8.128907,8.128907 4.471119,0 8.126949,-3.657782 8.126949,-8.128907 0,-4.471124 -3.65583,-8.126953 -8.126949,-8.126953 z m 0,3 c 2.849809,0 5.126949,2.277148 5.126949,5.126953 0,2.849806 -2.27714,5.128907 -5.126949,5.128907 -2.849806,0 -5.128907,-2.279101 -5.128907,-5.128907 0,-2.849805 2.279101,-5.126953 5.128907,-5.126953 z m 6.627009,5.127743 a 6.6278648,6.6278648 0 0 1 -6.627864,6.627865 6.6278648,6.6278648 0 0 1 -6.627865,-6.627865 6.6278648,6.6278648 0 0 1 6.627865,-6.627865 6.6278648,6.6278648 0 0 1 6.627864,6.627865 z"
         id="path9872" />
    </g>
    <path
       id="path10626"
       style="fill:none;stroke:#000000;stroke-width:0.264583px;stroke-linecap:butt;stroke-linejoin:miter;stroke-opacity:1"
       d="M 28.499552 8.6134277 C 28.499552 8.6134277 20.139684 9.5001224 19.379696 16.466695 C 18.619704 23.433268 21.65966 22.799642 21.65966 22.799642 C 21.65966 22.799642 12.793422 25.079702 11.906767 33.946248 C 11.020112 42.812798 12.033059 48.766205 -2.0267497 66.4993 C -16.086562 84.232395 23.433195 78.785889 23.433195 78.785889 C 23.433195 78.785889 24.826325 85.878767 29.512927 85.245443 C 34.199532 84.612118 35.719558 81.44585 35.08623 78.785889 C 34.452906 76.125923 57.125824 75.998989 59.152462 71.43905 C 61.082974 67.095395 60.591784 67.450483 56.709717 62.130575 A 12.360072 11.553981 0 0 1 53.592594 62.512463 A 12.360072 11.553981 0 0 1 41.232625 50.95813 A 12.360072 11.553981 0 0 1 46.443677 41.5401 C 45.679913 38.344971 45.00678 34.572603 44.459302 30.019873 C 42.052667 10.00681 36.226213 23.306244 36.226213 22.926249 C 36.226213 22.546255 41.672706 10.006742 28.499552 8.6134277 z " />
    <path
       id="path11408"
       style="fill:#000000;fill-opacity:1;stroke:#ae1617;stroke-width:0;stroke-dasharray:none;stroke-opacity:1;paint-order:markers fill stroke"
       d="m 64.755329,171.48669 c -4.964135,-0.60379 -8.5853,5.36834 -6.377651,9.09711 -2.53062,0.61424 -6.009191,1.52526 -6.308126,4.63589 -1.341148,7.88148 -0.93409,16.30401 -4.649299,23.59908 -2.437751,4.2226 -7.133513,6.33872 -10.401894,9.78911 -1.039474,1.90983 2.029096,2.51611 3.324263,2.87381 5.882805,1.28037 11.927057,1.56292 17.921188,1.91553 -0.254785,9.25293 14.654908,7.86294 14.423129,-0.14515 6.450595,-0.48267 13.038695,-0.6217 19.283376,-2.45207 3.619153,-0.77165 0.931794,-3.75801 -0.980437,-4.71441 -3.62692,-2.84804 -7.797192,-5.67937 -9.082434,-10.39708 -1.557732,-4.59014 -2.005895,-9.44987 -2.537215,-14.24017 -6.269438,2.33907 -13.038174,-6.10467 -6.873975,-10.61782 -0.643096,-0.37562 -0.892957,-0.53755 -1.464331,-0.7014 0.546363,-0.46559 0.779395,-1.2488 0.774059,-2.56212 0.0151,-3.64777 -3.665703,-6.17002 -7.050653,-6.08031 z m 1.085915,12.42353 c 0.0086,0.0211 -0.03962,0.064 0,0 z"
       sodipodi:nodetypes="cccccccccccccccccc" />
    <path
       style="fill:#000000;fill-opacity:1;stroke:#ae1617;stroke-width:0;stroke-dasharray:none;stroke-opacity:1;paint-order:markers fill stroke"
       d=""
       id="path11598"
       transform="scale(0.26458333)" />
  </g>
</svg>
